Simulation
nRows=48
nColumns=15
endheader
time  TH_x TH_y TH_z SC_y  SC_z  SC_x  AC_y  AC_z  AC_x  GH_y  GH_z  GH_yy  EL_x  PS_y
0.0  0.000000  0.000000  0.000000  -29.704960357780454  -0.8942913922311407  1.6340598068993337  56.59935227041868  4.062466470669684  -7.719604992582768  24.530829673888157  -0.866811746520383  22.151225703335744  25.53953190554969  0.000000
0.034  0.000000  0.000000  0.000000  -29.605648564395583  -1.0204034558630992  1.7452923166522334  56.883579882345835  4.102853007437243  -7.662533904038602  24.823103613932336  0.1618565478447964  20.90710266330459  25.61328167565313  0.000000
0.068  0.000000  0.000000  0.000000  -29.39812386132938  -1.0939028161566795  1.8628368165281708  57.11981617685882  4.0192852164923645  -7.689282451904819  25.473386051209843  1.340900306005757  19.184838624433745  25.678109968781097  0.000000
0.10200000000000001  0.000000  0.000000  0.000000  -29.288982406979656  -1.1865284345922127  2.019155208201122  57.3032821483359  3.920936462706972  -7.721851497015912  26.19102585831588  2.585810224195072  17.21802000366044  25.690113452032822  0.000000
0.136  0.000000  0.000000  0.000000  -29.18752498543763  -1.2673393106176594  2.206861483828501  57.56415495287942  3.8359528782569208  -7.740690635022278  26.938630239261578  3.9107394310667236  15.131788434635402  25.716759517343903  0.000000
0.17  0.000000  0.000000  0.000000  -29.1341119841483  -1.3143150177446845  2.43912425672647  57.868052624488804  3.781299508676606  -7.717331138935372  27.729154874425525  5.297404439345552  12.993436638597636  25.741844498665916  0.000000
0.20400000000000001  0.000000  0.000000  0.000000  -29.098132204837366  -1.340503185363167  2.689825112953375  58.21888067882079  3.779738878298278  -7.668594834171902  28.531587786133965  6.748020233507959  10.794329494155884  25.75969033463556  0.000000
0.23800000000000002  0.000000  0.000000  0.000000  -29.105486733916486  -1.3311872748986504  2.952957059136304  58.60444654379667  3.8538335499332446  -7.5889404712252295  29.363625790758892  8.255808959868833  8.569057046718303  25.764290170586136  0.000000
0.272  0.000000  0.000000  0.000000  -29.138803530280033  -1.2811939682749327  3.229143827227114  59.00432921087119  3.9963743064283026  -7.485258710437526  30.205301990063983  9.812299530965177  6.309128556911333  25.75616011888061  0.000000
0.30600000000000005  0.000000  0.000000  0.000000  -29.205247134558014  -1.2019787468590304  3.5283576037412856  59.429620594649904  4.189952048231069  -7.365712727624551  31.06136228043218  11.42219898733815  4.030485294626036  25.730372458892127  0.000000
0.34  0.000000  0.000000  0.000000  -29.289430061013633  -1.095749655985669  3.8417754436192273  59.86778979345718  4.429595715372011  -7.225241726659149  31.922802803795896  13.074528119360757  1.7319300476752166  25.694971537768907  0.000000
0.374  0.000000  0.000000  0.000000  -29.39278827842181  -0.9636815183864674  4.163590479495596  60.31804849824275  4.714213010784022  -7.068349589111861  32.79119796345738  14.764013626669515  -0.5762518270488705  25.650804358897254  0.000000
0.40800000000000003  0.000000  0.000000  0.000000  -29.50989654338192  -0.805184652815017  4.49350706101569  60.76318359252159  5.041038827705674  -6.898660868629583  33.663879484998375  16.477701691407294  -2.8880866599720147  25.60113394482036  0.000000
0.44200000000000006  0.000000  0.000000  0.000000  -29.635139459564385  -0.6203506337086094  4.838811820323071  61.20220537438901  5.395010149259385  -6.720880907460346  34.54414957269793  18.211741475950323  -5.193319006280111  25.54356206441978  0.000000
0.47600000000000003  0.000000  0.000000  0.000000  -29.761527374175092  -0.4132190372987588  5.199575507955925  61.62913062012916  5.771578644915544  -6.537530744466833  35.430748180900636  19.95839676992208  -7.4866887089547065  25.484903559472844  0.000000
0.51  0.000000  0.000000  0.000000  -29.884018280481172  -0.19187555375130008  5.57511658169988  62.04370520658527  6.165929102608856  -6.3577615341571585  36.316927934552695  21.713498899765803  -9.76898964106043  25.42331894350841  0.000000
0.544  0.000000  0.000000  0.000000  -30.00112059408144  0.0340559518651413  5.964846270491576  62.44124412456153  6.578546389703404  -6.190216369684947  37.20057123728758  23.470838889630883  -12.034625692691515  25.357358575243374  0.000000
0.5780000000000001  0.000000  0.000000  0.000000  -30.109077143703235  0.2589221245243149  6.362934228705832  62.81904514535831  7.014750351188775  -6.039242552471299  38.08181588896972  25.223650834733707  -14.27538921823704  25.286250107176894  0.000000
0.6120000000000001  0.000000  0.000000  0.000000  -30.207941674242363  0.48129405577178064  6.759501250961244  63.17604031208266  7.480187140504824  -5.89880463362024  38.95937098944137  26.96336200408238  -16.48502157437589  25.21122572086567  0.000000
0.646  0.000000  0.000000  0.000000  -30.300274670876167  0.703780573517818  7.150366314387408  63.514700060853734  7.965980211948292  -5.760356242712701  39.8309427883521  28.686408888955214  -18.659979981549405  25.131627656328483  0.000000
0.68  0.000000  0.000000  0.000000  -30.3889530061405  0.9299643795890375  7.539261137408282  63.83644069033506  8.455919962652713  -5.6184231987343685  40.695941704556084  30.38951995784124  -20.795370382269766  25.049421815839228  0.000000
0.7140000000000001  0.000000  0.000000  0.000000  -30.475075675850785  1.160359522833318  7.9309588644309805  64.14154408837179  8.935200978805058  -5.472132885325356  41.55228913951759  32.070422834363384  -22.887278661515367  24.96582747086476  0.000000
0.748  0.000000  0.000000  0.000000  -30.5600970406592  1.3917783916592652  8.337777208568736  64.43285470324955  9.386578664019243  -5.32783711831432  42.39699069886428  33.727257928365624  -24.932113401504147  24.88099178520204  0.000000
0.782  0.000000  0.000000  0.000000  -30.644306268483966  1.619774323169096  8.75847362627338  64.7115747481302  9.80678469857133  -5.187095089810074  43.226443605601176  35.35773758393228  -26.9266269659297  24.79534107926218  0.000000
0.8160000000000001  0.000000  0.000000  0.000000  -30.72761376965299  1.8428920669225164  9.1815550491147  64.9766592946366  10.201653869051572  -5.046083038851414  44.03879514417157  36.9593476494177  -28.86701265341151  24.708410882398542  0.000000
0.8500000000000001  0.000000  0.000000  0.000000  -30.81201719780746  2.0660636684680886  9.60459959878753  65.2248821494785  10.568147612674336  -4.901279470839925  44.83258544818225  38.528945733628  -30.74947462016574  24.62173752958941  0.000000
0.8840000000000001  0.000000  0.000000  0.000000  -30.901088518270974  2.2927675463660835  10.027449612024364  65.45473007467508  10.906522255718269  -4.75070202891456  45.604147823058454  40.06218300029422  -32.57034526050054  24.534855367270744  0.000000
0.918  0.000000  0.000000  0.000000  -30.995501410495272  2.525580738673598  10.442678019479352  65.66166183464875  11.228796876705497  -4.5912611481907675  46.347232760687376  41.552905311402924  -34.32694135933996  24.446312646524348  0.000000
0.9520000000000001  0.000000  0.000000  0.000000  -31.095790170438363  2.772612680706601  10.835455644114543  65.83774456813632  11.553549331116512  -4.412124959437903  47.0581451218616  42.992120883072964  -36.01570555087096  24.35567480204038  0.000000
0.9860000000000001  0.000000  0.000000  0.000000  -31.202460933271997  3.0356767375955744  11.217395636673594  65.98193078678122  11.869188447041793  -4.2180445045521315  47.73724740108939  44.37733707460839  -37.63181110110303  24.261999797979293  0.000000
1.02  0.000000  0.000000  0.000000  -31.309323659820137  3.299034650575357  11.60622257690178  66.10035667027458  12.157714768958854  -4.031668275542724  48.38263670298037  45.71215262854962  -39.173191159064125  24.167265472790532  0.000000
1.054  0.000000  0.000000  0.000000  -31.408544364908398  3.546698798124396  11.996178410362992  66.19673927002073  12.42222224854912  -3.865676260355904  48.99349203924926  46.998704580489495  -40.638139964129444  24.074051768983864  0.000000
1.088  0.000000  0.000000  0.000000  -31.497044063558647  3.7756402429042963  12.38261388830412  66.27220995971886  12.661910775992213  -3.7222925031517056  49.57244363750167  48.2353361105268  -42.0240429729204  23.984292520004317  0.000000
1.122  0.000000  0.000000  0.000000  -31.574775723564287  3.9877963975686024  12.762039273913146  66.32727703798494  12.876527299202266  -3.598610810286291  50.12194676475012  49.41698076452132  -43.32721703685172  23.899727479320468  0.000000
1.1560000000000001  0.000000  0.000000  0.000000  -31.642626533481362  4.185031485375144  13.131065552762154  66.36407588392905  13.068032946423475  -3.4917674062248776  50.641783350909535  50.53784760164693  -44.54519544005854  23.820494024280034  0.000000
1.1900000000000002  0.000000  0.000000  0.000000  -31.70254969898123  4.369284894406784  13.48640043907569  66.38401098224601  13.23803852200991  -3.3981636498598813  51.130592739653245  51.59231023153828  -45.67598202878896  23.74543950168318  0.000000
1.2240000000000002  0.000000  0.000000  0.000000  -31.755868235471446  4.54186079777292  13.825095922911565  66.38871686574235  13.388192887708891  -3.315826529612211  51.58618967895113  52.5766187227699  -46.71816742775018  23.674125378183515  0.000000
1.258  0.000000  0.000000  0.000000  -31.803317656757386  4.703275882628084  14.145710789884177  66.3808388747634  13.51986259035075  -3.2429284327080885  52.00660808128363  53.48835389216227  -47.67028794841814  23.607010368137864  0.000000
1.292  0.000000  0.000000  0.000000  -31.846853727332345  4.853499699559319  14.44696910195905  66.36340665282648  13.634625504034073  -3.178372175980964  52.39134417643252  54.327707810559566  -48.53026441198414  23.547952841295622  0.000000
1.326  0.000000  0.000000  0.000000  -31.886405984268745  4.9917694628432585  14.72561841994154  66.33806674633225  13.737028067391345  -3.1215296973738296  52.73995917139114  55.09610098939868  -49.29651187313406  23.496938738979225  0.000000
1.36  0.000000  0.000000  0.000000  -31.91888805303223  5.117837282721987  14.979305021958314  66.30617192094078  13.831075611601875  -3.071697434384361  53.04917139992753  55.79297742927615  -49.96954537261395  23.446054224813658  0.000000
1.3940000000000001  0.000000  0.000000  0.000000  -31.94477254367856  5.2320904360629426  15.207888726264509  66.26811758895929  13.917182332370603  -3.028885070662794  53.31657843545283  56.415354030758095  -50.5479564658384  23.39573287832247  0.000000
1.4280000000000002  0.000000  0.000000  0.000000  -31.966692146760014  5.333952988318225  15.41006206431072  66.2246114991352  13.995276212780606  -2.993763531067875  53.54162475375329  56.96156345876933  -51.02951915837925  23.350042333557067  0.000000
1.4620000000000002  0.000000  0.000000  0.000000  -31.984611666231793  5.4222875270656905  15.583411360634173  66.17670815241668  14.066358107167149  -2.966660098111603  53.72366988937195  57.431000721245454  -51.414108706300496  23.308664857363265  0.000000
1.496  0.000000  0.000000  0.000000  -31.997721901825475  5.496553542172274  15.726208691830244  66.12527264302366  14.131627198649376  -2.947887397823841  53.86207548070294  57.82285445077912  -51.70171932886095  23.27143557609865  0.000000
1.53  0.000000  0.000000  0.000000  -32.00574318144078  5.55648635768279  15.83717400369567  66.07073095523683  14.19210913687445  -2.9374498603655805  53.956737884486316  58.13645104602838  -51.89191607930434  23.238493137615826  0.000000
1.564  0.000000  0.000000  0.000000  -32.008535073025556  5.601891054960597  15.915301643229075  66.01354217922729  14.248564093187264  -2.9355184529186067  54.0072731502937  58.37134099322399  -51.98459071233711  23.210341107441224  0.000000
1.598  0.000000  0.000000  0.000000  -32.00608890173056  5.63261652770803  15.95971966361843  65.95372206467682  14.301734116869477  -2.942188087436668  54.013625628096555  58.52729387175559  -51.979597722729494  23.18733931240201  0.000000
